<?xml version="1.0" standalone="yes"?>
<svg xmlns="http://www.w3.org/2000/svg" width="1024" height="1024">
<path style="fill:#ffffff; stroke:none;" d="M0 0L0 1024L1024 1024L1024 0L0 0z"/>
<path style="fill:#f1a995; stroke:none;" d="M184 0L184 1L188 1L184 0M832 0L832 1L840 1L832 0M176.667 1.33331L177.333 1.66669L176.667 1.33331M843 1L843 2L849 2L843 1z"/>
<path style="fill:#f8c40a; stroke:none;" d="M167 2L168 3L167 2z"/>
<path style="fill:#f1a995; stroke:none;" d="M168.667 2.33331L169.333 2.66669L168.667 2.33331M852 2L852 3L859 4L852 2M165 3L166 4L165 3M160 4L161 5L160 4M861 4L861 5L868 6L861 4M156 5L157 6L156 5M151.667 6.33331L152.333 6.66669L151.667 6.33331M870 6L870 7L876 8L876 7L870 6M148 7L149 8L148 7M144.667 8.33331L145.333 8.66669L144.667 8.33331M877 8L877 9L880 9L877 8M141 9L142 10L141 9M881 9L881 10L888 12L888 11L881 9M138.667 10.3333L139.333 10.6667L138.667 10.3333M136 11L137 12L136 11M133 12L134 13L133 12M889.667 12.3333L890.333 12.6667L889.667 12.3333M130 13L131 14L130 13M892.667 13.3333L893.333 13.6667L892.667 13.3333M127.667 14.3333L128.333 14.6667L127.667 14.3333M895 14L895 15L899 16L899 15L895 14M125 15L126 16L125 15M123 16L124 17L123 16M900 16L901 17L900 16M121 17L122 18L121 17M902 17L902 18L919 26L919 25L902 17M118 18L119 19L118 18M116 19L117 20L116 19M114 20L115 21L114 20M112 21L113 22L112 21M110 22L111 23L110 22M108 23L109 24L108 23M106 24L105 26L106 24M103 26L104 27L103 26M920 26L920 27L929 32L929 31L920 26M101 27L100 29L101 27M98 29L99 30L98 29M96 30L95 32L96 30M93 32L94 33L93 32M930 32L930 33L942 41L930 32M90 34L91 35L90 34M87 36L86 38L87 36M84 38L83 40L84 38M80 41L78 44L80 41M943 41L975 71C967.081 59.7576 954.67 48.2984 943 41M76 44L73 48L76 44z"/>
<path style="fill:#f8c40a; stroke:none;" d="M70 49L71 50L70 49z"/>
<path style="fill:#f1a995; stroke:none;" d="M69 50L70 51L69 50M68 51L69 52L68 51M67 52L68 53L67 52M66 53L67 54L66 53M65 54L66 55L65 54M64 55L65 56L64 55M63 56L64 57L63 56M54 65L49 71L54 65M975 72L991 94L992 94C988.255 86.1196 982.047 77.1875 975 72M46 74L44 77L46 74M42 79L40 82L42 79M39 83L38 85L39 83M37 86L35 89L37 86M34 90L35 91L34 90z"/>
<path style="fill:#f8c40a; stroke:none;" d="M33 91L34 92L33 91z"/>
<path style="fill:#f1a995; stroke:none;" d="M32 93L33 94L32 93M992 95L994 97L992 95M30 96L31 97L30 96M29 98L28 100L29 98M994 98L997 104L998 104L994 98M27 101L28 102L27 101M26 103L27 104L26 103M25 105L26 106L25 105M998 105L1006 122L1007 122L998 105z"/>
<path style="fill:#f8c40a; stroke:none;" d="M24 106L25 107L24 106z"/>
<path style="fill:#f1a995; stroke:none;" d="M23 108L24 109L23 108M22 110L23 111L22 110M21 112L22 113L21 112M20 114L21 115L20 114M19 116L20 117L19 116M18 118L19 119L18 118M17 121L18 122L17 121M16 123L17 124L16 123M1007 123L1008 124L1007 123M15 125L16 126L15 125M1008 125L1010 132L1011 132L1008 125M14 128L15 129L14 128M13 130L14 131L13 130M12 133L13 134L12 133M1011 133L1015 147L1016 147L1011 133M11 136L12 137L11 136M10.3333 138.667L10.6667 139.333L10.3333 138.667M9.33333 141.667L9.66667 142.333L9.33333 141.667M8 145L9 146L8 145M7 148L8 149L7 148M1016.33 148.667L1016.67 149.333L1016.33 148.667M6.33333 151.667L6.66667 152.333L6.33333 151.667M1017 151L1017 154L1018 154L1017 151M5.33333 155.667L5.66667 156.333L5.33333 155.667M1018 155L1018 158L1019 158L1018 155M4 159L4 162L5 162L4 159M1019 159L1019 163L1020 163L1019 159M3.33333 164.667L3.66667 165.333L3.33333 164.667M1020 164L1020 168L1021 168L1020 164M2.33333 170.667L2.66667 171.333L2.33333 170.667M1021 170L1021 173L1022 173L1021 170z"/>
<path style="fill:#f8c40a; stroke:none;" d="M1 176L2 177L1 176z"/>
<path style="fill:#f1a995; stroke:none;" d="M1022 176L1022 182L1023 182L1022 176M1.33333 177.667L1.66667 178.333L1.33333 177.667M0 184L0 190L1 190L0 184M1023 184L1023 193L1024 193L1023 184M874 295L875 296L874 295z"/>
<path style="fill:#0596ad; stroke:none;" d="M874 296L875 297L874 296z"/>
<path style="fill:#f1a995; stroke:none;" d="M874 297L875 298L874 297z"/>
<path style="fill:#0596ad; stroke:none;" d="M873 298C868.924 315.616 862.01 334.921 853.741 351C850.673 356.965 845.536 365.233 838 365.681C827.529 366.304 816.573 352.315 811 345L810 345C812.147 352.453 816.743 359.298 820.579 366C826.235 375.882 833.39 390.238 844 395.543C851.227 399.157 860.139 396.216 867 393.28C881.177 387.213 893.584 378.441 907 371L907 370C900.597 371.748 894.525 374.402 888 375.789C852.763 383.28 867.209 333.958 871 315C872.019 309.906 874.785 302.978 873 298z"/>
<path style="fill:#f1a995; stroke:none;" d="M873 302L874 303L873 302M872 307L873 308L872 307M871 312L872 313L871 312M867 315L868 316L867 315M870 317L871 318L870 317M866 318L867 319L866 318M865 321L866 322L865 321M869 322L870 323L869 322M864 324L865 325L864 324M861 332L862 333L861 332M867 333L868 334L867 333z"/>
<path style="fill:#f8c40a; stroke:none;" d="M725 336C727.985 340.255 731.595 344.108 735.05 348C748.909 363.612 789.09 400.085 752 412.251C746.181 414.159 739.998 414.87 734 416L734 417C749.493 417 765.631 418.279 781 416.282C787.149 415.483 793.769 414.942 798.532 410.468C813.289 396.606 806 362.891 806 345L805 345C804.781 350.093 803.688 355.084 802.36 360C801.527 363.082 800.503 366.165 799.015 369C784.658 396.342 749.918 356.562 737 345.424C733.106 342.066 729.465 338.581 725 336z"/>
<path style="fill:#f1a995; stroke:none;" d="M866 339L867 340L866 339M858 340L859 341L858 340M809 343L810 344L809 343z"/>
<path style="fill:#0596ad; stroke:none;" d="M809 344L810 345L809 344z"/>
<path style="fill:#f1a995; stroke:none;" d="M856 345L857 346L856 345M865 346L866 347L865 346M812 347L813 348L812 347M851 355L852 356L851 355M815 356L816 357L815 356M864.333 357.667L864.667 358.333L864.333 357.667M816 358L817 359L816 358M849 358L850 359L849 358M844 363L845 364L844 363M820 365L821 366L820 365M834 365L835 366L834 365M840 365L841 366L840 365M865 366L866 367L865 366M902 371L903 372L902 371M905 371L906 372L905 371M868 372L869 373L868 372M899 372L900 373L899 372M909 372L908 377L909 372M869 373L870 374L869 373M893 374L894 375L893 374M826 375L827 376L826 375M872 375L873 376L872 375M889 375L890 376L889 375M875 376L876 377L875 376M884 376L885 377L884 376M897 376L898 377L897 376z"/>
<path style="fill:#e36815; stroke:none;" d="M907 376C898.716 390.88 881.892 409.964 882.46 428C883.061 447.081 918.416 463.329 934 469L934 468C930.142 465.362 926.384 462.376 923.171 458.961C896.542 430.658 943.187 419.089 964 411.997C969.343 410.176 974.453 408.148 980 407L980 406C961.687 408.365 943.59 414.91 925 414.999C917.382 415.036 908.294 414.912 904.318 406.985C898.907 396.196 909.095 385.977 907 376z"/>
<path style="fill:#f1a995; stroke:none;" d="M906 377L907 378L906 377M828 378L829 379L828 378M894 378L895 379L894 378M905 378L906 379L905 378M907 378L908 379L907 378M904 380L905 381L904 380M830 381L831 382L830 381M889 381L890 382L889 381M903 381L904 382L903 381M906 381L907 382L906 381M902 383L903 384L902 383M905 384L906 385L905 384M833 385L834 386L833 385M882 385L883 386L882 385M880 386L881 387L880 386M900 386L901 387L900 386M904.333 387.667L904.667 388.333L904.333 387.667M899 388L900 389L899 388M898 389L899 390L898 389M837 390L838 391L837 390M838 391L839 392L838 391M897 391L898 392L897 391M903 391L903 394L904 394L903 391M839 392L840 393L839 392M868 392L869 393L868 392M896 393L897 394L896 393M861 395L862 396L861 395M895 395L896 396L895 395M858 396L859 397L858 396M894 396L895 397L894 396M850 397L850 398L854 398L850 397M893 398L894 399L893 398M892 400L893 401L892 400M891 402L892 403L891 402M890 404L891 405L890 404M903.333 404.667L903.667 405.333L903.333 404.667M980 407L984 406L980 407M889 406L890 407L889 406M975.667 406.333L976.333 406.667L975.667 406.333M904.333 407.667L904.667 408.333L904.333 407.667M970.667 407.333L971.333 407.667L970.667 407.333M977 407L978 408L977 407M888 408L889 409L888 408M965.667 408.333L966.333 408.667L965.667 408.333M973.667 408.333L974.333 408.667L973.667 408.333M905 409L906 410L905 409M959 409L959 410L962 410L959 409M970.667 409.333L971.333 409.667L970.667 409.333M887 410L888 411L887 410M906 410L907 411L906 410M954 410L954 411L957 411L954 410M968 410L969 411L968 410M907 411L908 412L907 411M949 411L949 412L952 412L949 411M965 411L966 412L965 411M886 412L887 413L886 412M909 412L910 413L909 412M943 412L943 413L946 413L943 412M962 412L963 413L962 412M911 413L912 414L911 413M936 413L936 414L940 414L936 413M959.667 413.333L960.333 413.667L959.667 413.333M885.333 414.667L885.667 415.333L885.333 414.667M913 414L913 415L917 415L913 414M929 414L929 415L933 415L929 414M956.667 414.333L957.333 414.667L956.667 414.333M953.667 415.333L954.333 415.667L953.667 415.333M950.667 416.333L951.333 416.667L950.667 416.333M884 417L885 418L884 417M948 417L949 418L948 417M945 418L946 419L945 418M732 419L735 422L732 419M883.333 419.667L883.667 420.333L883.333 419.667M942.667 419.333L943.333 419.667L942.667 419.333M939.667 420.333L940.333 420.667L939.667 420.333z"/>
<path style="fill:#e36815; stroke:none;" d="M735 421L735 422C742.878 427.981 756.686 438.626 754.768 450C753.644 456.666 746.51 461.289 741 464.218C726.584 471.882 708.905 478.32 693 482L693 483C710.459 481.61 727.339 475.079 745 475.001C759.073 474.938 767.422 481.152 765.826 496C765.164 502.169 762.592 508.045 761 514L762 514C770.226 499.226 787.327 479.942 786.529 462C785.658 442.403 750.571 427.483 735 421z"/>
<path style="fill:#f1a995; stroke:none;" d="M736 421L737 422L736 421M937.667 421.333L938.333 421.667L937.667 421.333M738 422L739 423L738 422M935 422L936 423L935 422M737 423L738 424L737 423M740 423L741 424L740 423M882 423L882 426L883 426L882 423M932.667 423.333L933.333 423.667L932.667 423.333M738 424L739 425L738 424M742 424L743 425L742 424M930 424L931 425L930 424M739 425L740 426L739 425M744 425L745 426L744 425M928 425L929 426L928 425M740 426L741 427L740 426M746 426L747 427L746 426M926 426L927 427L926 426M748 427L749 428L748 427M924 427L925 428L924 427M750 428L751 429L750 428M923 428L924 429L923 428M744 429L745 430L744 429M751 429L752 430L751 429M882 429L882 432L883 432L882 429M921 429L922 430L921 429M753 430L754 431L753 430M920 430L921 431L920 430M755 431L756 432L755 431M919 431L920 432L919 431M757 432L758 433L757 432M918 432L919 433L918 432M758 433L759 434L758 433M917 433L918 434L917 433M748 434L749 435L748 434M760 434L761 435L760 434M883 434L884 435L883 434M916 434L917 435L916 434M749 435L750 436L749 435M762 435L763 436L762 435M915 435L916 436L915 435M750 436L751 437L750 436M763 436L764 437L763 436M884 436L885 437L884 436M765 437L766 438L765 437M914.333 437.667L914.667 438.333L914.333 437.667M766 438L767 439L766 438M752 439L753 440L752 439M768 439L769 440L768 439M886 439L887 440L886 439M769 440L770 441L769 440M887 440L888 441L887 440M753 441L754 442L753 441M771 441L772 442L771 441M888 441L889 442L888 441M772 442L773 443L772 442M889 442L890 443L889 442M754.333 443.667L754.667 444.333L754.333 443.667M775 444L776 445L775 444M892 444L893 445L892 444M776 445L777 446L776 445M893 445L894 446L893 445M914 446L915 447L914 446M896 447L897 448L896 447M780 448L781 449L780 448M897 448L898 449L897 448M915 448L916 449L915 448M781 449L782 450L781 449M900 450L901 451L900 450M916 450L917 451L916 450M754.333 451.667L754.667 452.333L754.333 451.667M783 452L784 453L783 452M903 452L904 453L903 452M917 452L918 453L917 452M784 453L785 454L784 453M905 453L906 454L905 453M918 453L919 454L918 453M753 454L754 455L753 454M906 454L907 455L906 454M919 454L920 455L919 454M752 455L753 456L752 455M785.333 455.667L785.667 456.333L785.333 455.667M908 455L909 456L908 455M751 456L752 457L751 456M909 456L910 457L909 456M750 457L751 458L750 457M911 457L912 458L911 457M921 457L922 458L921 457M749 458L750 459L749 458M786 458L786 461L787 461L786 458M913 458L914 459L913 458M922 458L923 459L922 458M748 459L749 460L748 459M915 459L916 460L915 459M923 459L924 460L923 459M747 460L748 461L747 460M916 460L917 461L916 460M924 460L925 461L924 460M745 461L746 462L745 461M918 461L919 462L918 461M925 461L926 462L925 461M744 462L745 463L744 462M920 462L921 463L920 462M926 462L927 463L926 462M742 463L743 464L742 463M922 463L923 464L922 463M740 464L741 465L740 464M786 464L786 467L787 467L786 464M924 464L925 465L924 464M738 465L739 466L738 465M926 465L927 466L926 465M930 465L931 466L930 465M736 466L737 467L736 466M927.667 466.333L928.333 466.667L927.667 466.333M931 466L932 467L931 466M733.667 467.333L734.333 467.667L733.667 467.333M929.667 467.333L930.333 467.667L929.667 467.333M932 467L933 468L932 467M731 468L732 469L731 468M931 468L932 469L931 468M728.667 469.333L729.333 469.667L728.667 469.333M785.333 469.667L785.667 470.333L785.333 469.667M933 469L933 470L937 471L937 470L933 469M726 470L727 471L726 470M723 471L724 472L723 471M720.667 472.333L721.333 472.667L720.667 472.333M784 472L785 473L784 472M717.667 473.333L718.333 473.667L717.667 473.333z"/>
<path style="fill:#f8c40a; stroke:none;" d="M863 546L864 546C864.105 540.892 865.041 535.917 866.428 531C867.377 527.637 868.398 524.119 869.996 521C876.128 509.036 886.807 509.57 897 516.09C913.923 526.916 926.731 544.019 944 554C932.616 537.775 916.862 524.807 906.09 508C898.919 496.811 898.265 485.945 912 479.877C919.091 476.743 926.561 475.833 934 474C927.322 471.198 917.216 473 910 473C898.914 473 882.687 471.203 873.004 477.703C854.896 489.858 863 527.708 863 546z"/>
<path style="fill:#f1a995; stroke:none;" d="M715 474L716 475L715 474M712 475L713 476L712 475M737 475L737 476L741 476L737 475M752 475L752 476L755 476L752 475M783 475L784 476L783 475M709.667 476.333L710.333 476.667L709.667 476.333M729 476L729 477L733 477L729 476M757 476L758 477L757 476M706 477L707 478L706 477M723 477L723 478L727 478L723 477M759 477L760 478L759 477M782 477L783 478L782 477M703.667 478.333L704.333 478.667L703.667 478.333M718 478L718 479L721 479L718 478M761 478L762 479L761 478M700.667 479.333L701.333 479.667L700.667 479.333M712 479L712 480L715 480L712 479M762 479L763 480L762 479M781 479L782 480L781 479M697.667 480.333L698.333 480.667L697.667 480.333M707 480L707 481L710 481L707 480M763 480L764 481L763 480M694.667 481.333L695.333 481.667L694.667 481.333M702 481L702 482L705 482L702 481M780 481L781 482L780 481M691 482L691 483L695 484L695 483L691 482M697 482L697 483L700 483L697 482M764 482L765 483L764 482M685 484L685 485L690 483L685 484z"/>
<path style="fill:#e36815; stroke:none;" d="M690.667 483.333L691.333 483.667L690.667 483.333z"/>
<path style="fill:#f1a995; stroke:none;" d="M779 483L780 484L779 483M765.333 484.667L765.667 485.333L765.333 484.667M778 485L779 486L778 485M777 487L778 488L777 487M776 489L777 490L776 489M775 491L776 492L775 491M816 492L817 493L816 492M774 493L775 494L774 493M810 493L811 494L810 493z"/>
<path style="fill:#0596ad; stroke:none;" d="M764 518L764 519C772.535 517.025 782.027 511.82 791 513.333C802.269 515.234 804.015 525.497 804 535C803.97 554.358 796.524 572.858 795 592L796 592C800.113 574.223 807.065 554.038 815.792 538C818.87 532.344 824.596 523.928 832 524.437C843.649 525.237 850.858 538.435 859 545C854.869 530.687 843.938 514.448 834.535 503C830.396 497.96 825.76 493.64 819 493.093C800.161 491.571 779.203 508.662 764 518z"/>
<path style="fill:#f1a995; stroke:none;" d="M822 493L823 494L822 493M773.333 494.667L773.667 495.333L773.333 494.667M807 494L808 495L807 494M765 496L765 499L766 499L765 496M772 496L773 497L772 496M800 497L801 498L800 497M829 497L830 498L829 497M771 498L772 499L771 498M798 498L799 499L798 498M830 498L831 499L830 498M796 499L797 500L796 499M831 499L832 500L831 499M770 500L771 501L770 500M764.333 501.667L764.667 502.333L764.333 501.667M769 501L770 502L769 501M790 502L791 503L790 502M768 503L769 504L768 503M788 503L789 504L788 503M835 504L836 505L835 504M763 505L764 506L763 505M767 505L768 506L767 505M766 506L767 507L766 506M781 507L782 508L781 507M762.333 508.667L762.667 509.333L762.333 508.667M765 508L766 509L765 508M764 509L765 510L764 509M776 510L777 511L776 510M761 511L762 512L761 511M763 511L764 512L763 511M840 511L841 512L840 511M762 512L763 513L762 512M760 513L760 515L762 515L760 513M771 513L772 514L771 513M784 513L784 514L787 514L784 513M791.667 513.333L792.333 513.667L791.667 513.333M779 514L780 515L779 514M842 514L843 515L842 514z"/>
<path style="fill:#e36815; stroke:none;" d="M760 515L761 516L760 515z"/>
<path style="fill:#f1a995; stroke:none;" d="M768 515L769 516L768 515M775 515L776 516L775 515M759 516L759 518L761 516L759 516M772 516L773 517L772 516M769 517L770 518L769 517M766 518L767 519L766 518z"/>
<path style="fill:#0596ad; stroke:none;" d="M762.667 519.333L763.333 519.667L762.667 519.333z"/>
<path style="fill:#f1a995; stroke:none;" d="M845 519L846 520L845 519M761 520L762 521L761 520M828.667 524.333L829.333 524.667L828.667 524.333M833 524L834 525L833 524M848 524L849 525L848 524M826 525L827 526L826 525M843 529L844 530L843 529M852 531L853 532L852 531M853 533L854 534L853 533M817 534L818 535L817 534M854 535L855 536L854 535M855 541L856 542L855 541M813 542L814 543L813 542M803 543L804 544L803 543M812 544L813 545L812 544z"/>
<path style="fill:#0596ad; stroke:none;" d="M859 545L860 546L859 545z"/>
<path style="fill:#f1a995; stroke:none;" d="M810 549L811 550L810 549M802 550L803 551L802 550M801 556L802 557L801 556M807 557L808 558L807 557z"/>
<path style="fill:#0596ad; stroke:none;" d="M131 563C122.745 570.143 110.371 575.683 103.728 584.325C100.199 588.915 99.5622 596.533 98 602C93.039 619.361 85.3533 638.968 84.0895 657C83.6336 663.505 84.2715 669.973 86.8796 676C104.303 716.264 160.951 693.255 174.688 663C182.84 645.044 179.284 622.514 161 612.349C147.993 605.117 133.728 610.268 120 607L128.873 576L131 563z"/>
<path style="fill:#f1a995; stroke:none;" d="M128 565L129 566L128 565M799 567L800 568L799 567M124 568L125 569L124 568M803 568L804 569L803 568M130 569L131 570L130 569M120 571L121 572L120 571M802 571L803 572L802 571M798 572L799 573L798 572M129 573L130 574L129 573M116 574L117 575L116 574M801 574L802 575L801 574M224.667 577.333L225.333 577.667L224.667 577.333M797 577L798 578L797 577M800 577L801 578L800 577M220 578L221 579L220 578z"/>
<path style="fill:#0596ad; stroke:none;" d="M221 578.653C207.913 582.752 208.852 603.252 224 598.146C236.827 593.822 236.283 573.866 221 578.653z"/>
<path style="fill:#f1a995; stroke:none;" d="M218 579L219 580L218 579M108 580L109 581L108 580M799 580L800 581L799 580M215 581L216 582L215 581M214 582L215 583L214 582M233 582L234 583L233 582M796 582L797 583L796 582M126 584L127 585L126 584M102 585L103 586L102 585M211 587L212 588L211 587M795 587L796 588L795 587M101 589L102 590L101 589M794 592L795 593L794 592z"/>
<path style="fill:#0596ad; stroke:none;" d="M794 593L795 594L794 593z"/>
<path style="fill:#f1a995; stroke:none;" d="M211 594L212 595L211 594M794 594L795 595L794 594M123 595L124 596L123 595M99 596L100 597L99 596M227 596L228 597L227 596M215 598L216 599L215 598M223 598L224 599L223 598M122 599L123 600L122 599M98 600L99 601L98 600M120 606L121 607L120 606M96 607L97 608L96 607M121 607L121 608L144 608L121 607M206 607L206 608L227 608L206 607z"/>
<path style="fill:#0596ad; stroke:none;" d="M227 607L206.703 609.028L199.29 632L182 697L203.437 695.972L210 676L223.151 627L227 607z"/>
<path style="fill:#f1a995; stroke:none;" d="M284 607L284 608L291 608L284 607M392 607L392 608L399 608L392 607M476 607L476 608L482 608L476 607M585 607L585 608L592 608L585 607M668 607L668 608L675 608L668 607M738 607L738 608L745 608L738 607M847 607L847 608L853 608L847 607M150 608L151 609L150 608M277 608L278 609L277 608z"/>
<path style="fill:#0596ad; stroke:none;" d="M278 608.464C256.327 612.295 237.057 629.448 231.899 651C225.012 679.776 249.3 700.887 277 696.561C298.143 693.259 317.562 677.764 323.792 657C332.928 626.547 308.093 603.144 278 608.464z"/>
<path style="fill:#f1a995; stroke:none;" d="M297 608L298 609L297 608M385 608L386 609L385 608z"/>
<path style="fill:#0596ad; stroke:none;" d="M316 741C335.786 732.636 347.937 717.815 351 697C364.789 696.999 380.344 685.633 389 675L357 675C359.973 667.234 360.655 658.445 364.378 651C372.171 635.414 395.981 620.219 410 637C414.368 634.511 425.23 628.924 426.654 623.826C427.919 619.3 420.152 614.693 417 612.88C405.587 606.314 390.26 606.479 378 610.519C342.338 622.271 337.387 660.543 329.116 692C324.831 708.297 319.415 724.5 316 741z"/>
<path style="fill:#f1a995; stroke:none;" d="M405 608L406 609L405 608M468 608L469 609L468 608z"/>
<path style="fill:#0596ad; stroke:none;" d="M505 697C508.958 677.874 518.365 658.829 516.91 639C515.189 615.546 492.482 606.588 472 608.09C437.038 610.655 402.382 661.435 435.004 688.671C441.118 693.776 449.048 696.787 457 696.985C472.979 697.383 489.016 697 505 697z"/>
<path style="fill:#f1a995; stroke:none;" d="M488 608L489 609L488 608z"/>
<path style="fill:#0596ad; stroke:none;" d="M520 697L544 697C548.633 674.614 553.386 640.348 578 631.549C583.077 629.734 588.8 628.792 594 630.614C597.226 631.745 600.451 635.428 604 635.122C609.717 634.629 616.206 626.985 621 624C603.956 596.978 562.072 606.782 544.619 628.004C529.048 646.937 527.251 674.324 520 697M603 697L627 697C631.489 677.421 634.939 649.45 652 636.761C660.465 630.465 676.69 624.574 683.772 636.043C687.892 642.717 685.333 651.049 683.424 658C679.859 670.976 676.649 684.046 673 697L697 697C701.499 677.374 704.903 649.461 722 636.761C730.944 630.117 748.925 624.211 754.772 638.004C757.545 644.547 754.842 652.546 753 659C749.426 671.521 745.632 684.248 743 697L767 697C770.044 674.394 786.906 648.366 774.876 626C765.057 607.744 741.107 604.232 723 610.698C717.162 612.783 709.872 619.765 704 620.258C699.54 620.632 693.97 613.802 690 611.81C682.034 607.814 673.738 607.643 665 608.039C619.418 610.109 612.608 663.142 603 697z"/>
<path style="fill:#f1a995; stroke:none;" d="M730 608L731 609L730 608M750 608L751 609L750 608z"/>
<path style="fill:#0596ad; stroke:none;" d="M876 697C880.057 677.396 890.29 657.397 887.816 637C885.163 615.139 863.966 607.543 845 608.015C809.623 608.895 773.498 659.492 805.015 687.815C810.963 693.16 818.992 696.597 827 696.961C843.264 697.699 859.718 697 876 697z"/>
<path style="fill:#f1a995; stroke:none;" d="M205 609L206 610L205 609M273 609L274 610L273 609M381 609L382 610L381 609M409 609L410 610L409 609M464 609L465 610L464 609M492 609L493 610L492 609M573 609L574 610L573 609M684 609L685 610L684 609M726 609L727 610L726 609M754 609L755 610L754 609M835 609L836 610L835 609M863 609L864 610L863 609M461 610L462 611L461 610M570 610L571 611L570 610M604 610L605 611L604 610M687 610L688 611L687 610M723 610L724 611L723 610M832 610L833 611L832 610M95 611L96 612L95 611M267 611L268 612L267 611M375 611L376 612L375 611M414 611L415 612L414 611M497 611L498 612L497 611M689 611L690 612L689 611M759 611L760 612L759 611M868 611L869 612L868 611M204 612L205 613L204 612M456 612L457 613L456 612M499 612L500 613L499 612M565 612L566 613L565 612M691 612L692 613L691 612M718 612L719 613L718 612M761 612L762 613L761 612M827 612L828 613L827 612M870 612L871 613L870 612M454 613L455 614L454 613M563 613L564 614L563 613M610 613L611 614L610 613M716 613L717 614L716 613M825 613L826 614L825 613M226 614L227 615L226 614M419 614L420 615L419 614M452 614L453 615L452 614M502 614L503 615L502 614M561 614L562 615L561 614M694 614L695 615L694 614M714 614L715 615L714 614M764 614L765 615L764 614M823 614L824 615L823 614M873 614L874 615L873 614M94 615L95 616L94 615M165 615L166 616L165 615M312 615L313 616L312 615M367 615L368 616L367 615M203 616L204 617L203 616M614 616L615 617L614 616M641 616L642 617L641 616M447 617L448 618L447 617M709 617L710 618L709 617M225 618L226 619L225 618M638 618L639 619L638 618M361 619L362 620L361 619M202 620L203 621L202 620M443 620L444 621L443 620M618 620L619 621L618 620M705 620L706 621L705 620M814 620L815 621L814 620M171 621L172 622L171 621M318 621L319 622L318 621M551 621L552 622L551 621M634 621L635 622L634 621M92 622L93 623L92 622M633 622L634 623L633 622M248 623L249 624L248 623M511 623L512 624L511 623M882 623L883 624L882 623M247 624L248 625L247 624M320 624L321 625L320 624M619 624L620 625L619 624M223 625L224 626L223 625M246 625L247 626L246 625M774 625L775 626L774 625M91 626L92 627L91 626M245 626L246 627L245 626M424 626L425 627L424 626M200 627L201 628L200 627M244 627L245 628L244 627M615 627L616 628L615 627M544 628L545 629L544 628M627 628L628 629L627 628M115 629L115 630L143 630L115 629M222 629L223 630L222 629M285 629L285 630L290 630L285 629M393 629L393 630L398 630L393 629M420 629L421 630L420 629M477 629L477 630L481 630L477 629M543 629L544 630L543 629M586 629L586 630L590 630L586 629M669 629L669 630L674 630L669 629M739 629L739 630L743 630L739 629M776 629L777 630L776 629M848 629L848 630L852 630L848 629M90 630L91 631L90 630z"/>
<path style="fill:#ffffff; stroke:none;" d="M114 630C111.765 640.8 102.895 657.187 108.318 667.985C112.063 675.442 121.831 675.86 129 674.331C139.198 672.155 148.731 665.286 153.598 656C161.126 641.637 153.758 630.006 138 630L114 630z"/>
<path style="fill:#f1a995; stroke:none;" d="M147 630L148 631L147 630M280 630L281 631L280 630z"/>
<path style="fill:#ffffff; stroke:none;" d="M281 630.468C269.196 632.694 258.722 641.882 254.468 653C248.918 667.507 259.811 677.044 274 674.674C285.735 672.715 296.942 663.887 301.64 653C308.394 637.349 296.062 627.626 281 630.468z"/>
<path style="fill:#f1a995; stroke:none;" d="M294 630L295 631L294 630M323 630L324 631L323 630M388 630L389 631L388 630M402 630L403 631L402 630M433 630L434 631L433 630M471 630L472 631L471 630z"/>
<path style="fill:#ffffff; stroke:none;" d="M472 630.518C457.837 633.539 435.234 654.174 447.653 669.812C453.563 677.254 476.193 677.297 484.772 674.682C489.706 673.179 490.528 662.285 491.63 658C495.786 641.832 493.159 626.003 472 630.518z"/>
<path style="fill:#f1a995; stroke:none;" d="M485 630L486 631L485 630M594 630L595 631L594 630M611 630L612 631L611 630M677 630L678 631L677 630M733 630L734 631L733 630M747 630L748 631L747 630M842 630L843 631L842 630z"/>
<path style="fill:#ffffff; stroke:none;" d="M843 630.518C828.983 633.508 806.302 654.224 818.653 669.812C824.552 677.258 847.201 677.294 855.772 674.682C860.717 673.175 861.495 662.28 862.71 658C867.367 641.593 864 626.037 843 630.518z"/>
<path style="fill:#f1a995; stroke:none;" d="M856 630L857 631L856 630M149 631L150 632L149 631M199 631L200 632L199 631M468 631L469 632L468 631M515 631L516 632L515 631M577 631L578 632L577 631M839 631L840 632L839 631M886 631L887 632L886 631M113 632L114 633L113 632M240 632L241 633L240 632M274 632L275 633L274 632M298 632L299 633L298 632M416 632L417 633L416 632M489 632L490 633L489 632M624 632L625 633L624 632M658 632L659 633L658 632M681 632L682 633L681 632M728 632L729 633L728 632M751 632L752 633L751 632M860 632L861 633L860 632M152 633L153 634L152 633M272 633L273 634L272 633M299 633L300 634L299 633M324 633L325 634L324 633M407 633L408 634L407 633M490 633L491 634L490 633M607 633L608 634L607 633M656 633L657 634L656 633M682 633L683 634L682 633M726 633L727 634L726 633M752 633L753 634L752 633M153 634L154 635L153 634M300 634L301 635L300 634M347 634L348 635L347 634M408 634L409 635L408 634M491 634L492 635L491 634M571 634L572 635L571 634M238 635L239 636L238 635M377 635L378 636L377 635M412 635L413 636L412 635M460 635L461 636L460 635M516 635L517 636L516 635M539 635L540 636L539 635M622 635L623 636L622 635M831 635L832 636L831 635M112 636L113 637L112 636M429 636L430 637L429 636M568 636L569 637L568 636M602.667 636.333L603.333 636.667L602.667 636.333M684 636L685 637L684 636M754 636L755 637L754 636M778 636L779 637L778 636M800 636L801 637L800 636M88 637L89 638L88 637M155 637L156 638L155 637M178 637L179 638L178 637M302 637L303 638L302 637M457 637L458 638L457 637M493 637L494 638L493 637M650 637L651 638L650 637M720 637L721 638L720 637M864 637L865 638L864 637M197 638L198 639L197 638M325 638L326 639L325 638M373 638L374 639L373 638M456 638L457 639L456 638M649 638L650 639L649 638M827 638L828 639L827 638M372 639L373 640L372 639M685 639L686 640L685 639M755 639L756 640L755 639M156 640L157 641L156 640M219 640L220 641L219 640M303 640L304 641L303 640M371 640L372 641L371 640M494 640L495 641L494 640M865 640L866 641L865 640M888 640L888 648L889 648L888 640M87 641L88 642L87 641M370 641L371 642L370 641M517 641L517 647L518 647L517 641M196 642L197 643L196 642M110 643L111 644L110 643M451 643L452 644L451 643M618 643L619 644L618 643M644 643L645 644L644 643M714 643L715 644L714 643M822 643L823 644L822 643M218 644L219 645L218 644M342 644L343 645L342 644M425 644L426 645L425 644M560 644L561 645L560 644M713 644L714 645L713 644M796 644L797 645L796 644M233 645L234 646L233 645M258 645L259 646L258 645M195 646L196 647L195 646M303 646L304 647L303 646M494 646L495 647L494 646M109 647L110 648L109 647M424 647L425 648L424 647M558 647L559 648L558 647M795 647L796 648L795 647M865 647L866 648L865 647M85 648L86 649L85 648M232 648L233 649L232 648M256 648L257 649L256 648M365 648L366 649L365 648M533 648L534 649L533 648M616 648L617 649L616 648M755 648L756 649L755 648M325 649L326 650L325 649M447 649L448 650L447 649M640 649L641 650L640 649M685 649L686 650L685 649M710 649L711 650L710 649M818 649L819 650L818 649M178 650L179 651L178 650M255 650L256 651L255 650M155 651L156 652L155 651M216 651L217 652L216 651M446 651L447 652L446 651M532 651L533 652L532 651M556 651L557 652L556 651M615 651L616 652L615 651M639 651L640 652L639 651M709 651L710 652L709 651M778 651L779 652L778 651M817 651L818 652L817 651M231 652L232 653L231 652M254 652L255 653L254 652M363 652L364 653L363 652M84 653L85 654L84 653M193 653L194 654L193 653M339 653L340 654L339 653M516 653L517 654L516 653M754 653L755 654L754 653M887 653L888 654L887 653M107 654L108 655L107 654M324 654L325 655L324 654M492 654L493 655L492 654M684 654L685 655L684 654M816 654L817 655L816 654M215 655L216 656L215 655M253 655L254 656L253 655M362 655L363 656L362 655M777 655L778 656L777 655M422.333 656.667L422.667 657.333L422.333 656.667M338 657L339 658L338 657M515 657L516 658L515 657M554 657L555 658L554 657M637 657L638 658L637 657M707 657L708 658L707 657M753 657L754 658L753 657M793 657L794 658L793 657M886 657L887 658L886 657M176 658L177 659L176 658M298 658L299 659L298 658M444.333 658.667L444.667 659.333L444.333 658.667M491 658L492 659L491 658M613 658L614 659L613 658M815 658L815 663L816 663L815 658M862 658L863 659L862 658M361 659L362 660L361 659M776 659L777 660L776 659M106 660L106 663L107 663L106 660M150 660L151 661L150 660M322 660L323 661L322 660M444.333 661.667L444.667 662.333L444.333 661.667M636 661L637 662L636 661M682 661L683 662L682 661M706 661L707 662L706 661M490 662L491 663L490 662M529 662L530 663L529 662M612 662L613 663L612 662M861 662L862 663L861 662M174 663L175 664L174 663M294 663L295 664L294 663M775 663L776 664L775 663M190 664L191 665L190 664M336 664L337 665L336 664M422.333 664.667L422.667 665.333L422.333 664.667M513 664L514 665L513 664M552 664L553 665L552 664M793 664L794 665L793 664M173 665L174 666L173 665M681 665L682 666L681 665M107 666L108 667L107 666M212 666L213 667L212 666M445 666L446 667L445 666M143 667L144 668L143 667M774 667L775 668L774 667M84 668L85 669L84 668M189 668L190 669L189 668M288 668L289 669L288 668M318 668L319 669L318 668M335 668L336 669L335 668M446 668L447 669L446 668M512 668L513 669L512 668M551 668L552 669L551 668M634 668L635 669L634 668M704 668L705 669L704 668M750 668L751 669L750 668M817 668L818 669L817 668M883 668L884 669L883 668M140 669L141 670L140 669M231 669L232 670L231 669M488 669L489 670L488 669M610 669L611 670L610 669M680 669L681 670L680 669M859 669L860 670L859 669M170 670L171 671L170 670M211 670L212 671L211 670M285 670L286 671L285 670M358 670L359 671L358 670M423 670L424 671L423 670M794 670L795 671L794 670M283 671L284 672L283 671M316 671L317 672L316 671M188 672L189 673L188 672M258 672L259 673L258 672M281 672L282 673L281 672M450 672L451 673L450 672M633 672L634 673L633 672M703 672L704 673L703 672M749 672L750 673L749 672M821 672L822 673L821 672M882 672L883 673L882 672M132 673L133 674L132 673M278 673L279 674L278 673M424 673L425 674L424 673M526 673L527 674L526 673M609 673L610 674L609 673M795 673L796 674L795 673M858 673L859 674L858 673M116 674L117 675L116 674M128 674L129 675L128 674M275 674L276 675L275 674M357 674L358 675L357 674M454 674L455 675L454 674M772 674L773 675L772 674M825 674L826 675L825 674M233 675L234 676L233 675M313 675L314 676L313 675M333 675L334 676L333 675M510 675L511 676L510 675M549 675L550 676L549 675M881 675L882 676L881 675M632 676L633 677L632 676M678 676L679 677L678 676M209 677L210 678L209 677M525 677L526 678L525 677M385 678L386 679L385 678M771 678L772 679L771 678M186 679L187 680L186 679M235 679L236 680L235 679M332 679L333 680L332 679M509 679L510 680L509 679M548 679L549 680L548 679M701 679L702 680L701 679M747 679L748 680L747 679M880 679L881 680L880 679M607 680L608 681L607 680M677 680L678 681L677 680M208 681L209 682L208 681M381 681L382 682L381 681M428 681L429 682L428 681M799 681L800 682L799 681M237 682L238 683L237 682M91 683L92 684L91 683M185 683L186 684L185 683M305 683L306 684L305 683M508 683L509 684L508 683M630 683L631 684L630 683M700 683L701 684L700 683M746 683L747 684L746 683M879 683L880 684L879 683M157 684L158 685L157 684M377 684L378 685L377 684M606 684L607 685L606 684M676 684L677 685L676 684M769 685L770 686L769 685M301 686L302 687L301 686M153 687L154 688L153 687M373 687L374 688L373 687M629 687L630 688L629 687M699 687L700 688L699 687M96 688L97 689L96 688M298 688L299 689L298 688M522 688L523 689L522 688M605 688L606 689L605 688M244 689L245 690L244 689M768 689L769 690L768 689M148 690L149 691L148 690M183 690L184 691L183 690M329 690L330 691L329 690M369 690L370 691L369 690M437 690L438 691L437 690M506 690L507 691L506 690M545 690L546 691L545 690M744 690L745 691L744 690M808 690L809 691L808 690M877 690L878 691L877 690M100 691L101 692L100 691M146 691L147 692L146 691M674 691L675 692L674 691M205 692L206 693L205 692M521 692L522 693L521 692M104 693L105 694L104 693M288 693L289 694L288 693M365 693L366 694L365 693M767 693L768 694L767 693M106 694L107 695L106 694M182 694L183 695L182 694M253 694L254 695L253 694M328 694L329 695L328 694M505 694L506 695L505 694M627 694L628 695L627 694M697 694L698 695L697 694M743 694L744 695L743 694M876 694L877 695L876 694M109 695L110 696L109 695M282 695L283 696L282 695M603 695L604 696L603 695M673 695L674 696L673 695M113 696L114 697L113 696M131 696L132 697L131 696M204 696L205 697L204 696M277 696L278 697L277 696M361 696L362 697L361 696M822 696L823 697L822 696M351 697L352 698L351 697M326 701L327 702L326 701M349 703L350 704L349 703M325 705L326 706L325 705M348 707L349 708L348 707M347 711L348 712L347 711M322 716L323 717L322 716M345 718L346 719L345 718M321 720L322 721L321 720M340 723L341 724L340 723M336 726L337 727L336 726M319 727L320 728L319 727M332 729L333 730L332 729M318 731L319 732L318 731M328 732L329 733L328 732M324 735L325 736L324 735M320 738L321 739L320 738M316 741L317 742L316 741M1023 828L1023 840L1024 840L1023 828M0 831L0 840L1 840L0 831M1022 842L1022 848L1023 848L1022 842M1 843L1 848L2 848L1 843M1021 849L1021 854L1022 854L1021 849M2 850L2 854L3 854L2 850M1020 855L1020 860L1021 860L1020 855M3 856L3 860L4 860L3 856M4 861L4 865L5 865L4 861M1019 861L1019 864L1020 864L1019 861z"/>
<path style="fill:#e36815; stroke:none;" d="M1019 864L1020 865L1019 864z"/>
<path style="fill:#f1a995; stroke:none;" d="M1018 865L1018 869L1019 869L1018 865M5 866L5 869L6 869L5 866M6 870L6 873L7 873L6 870M1017 870L1016 876L1017 876L1017 870M7.33333 874.667L7.66667 875.333L7.33333 874.667M8 877L8 880L9 880L8 877M1015 877L1007 901L1008 901C1010.5 894.553 1017.03 883.878 1015 877M9.33333 881.667L9.66667 882.333L9.33333 881.667M10.3333 884.667L10.6667 885.333L10.3333 884.667M11.3333 887.667L11.6667 888.333L11.3333 887.667M12 890L13 894L14 894L12 890M14 895L15 899L16 899L14 895M16 900L17 901L16 900M17 902L25 919L26 919L17 902M1006 902L988 935C994.271 929.665 1007.41 910.492 1006 902M26 920L29 926L30 926L26 920M30 927C42.1512 952.686 71.3085 981.846 97 994L97 993C80.6282 981.954 65.4468 969.7 52.1698 955C44.3146 946.303 38.5494 934.835 30 927z"/>
<path style="fill:#e36815; stroke:none;" d="M988 935L989 936L988 935z"/>
<path style="fill:#f1a995; stroke:none;" d="M987 936L988 937L987 936M986 937L987 938L986 937M985.333 938.667L985.667 939.333L985.333 938.667M984 940L985 941L984 940M983 941L982 944L983 944L983 941z"/>
<path style="fill:#e36815; stroke:none;" d="M983 942L984 943L983 942z"/>
<path style="fill:#f1a995; stroke:none;" d="M981 944L982 945L981 944M980 945L981 946L980 945M979 946L978 949L979 946M977 949L978 950L977 949M976 950L977 951L976 950M975 951L976 952L975 951M974 952L973 955L974 952M972 955L973 956L972 955M971 956L972 957L971 956M970 957L971 958L970 957M969 958L970 959L969 958M968 959L969 960L968 959M967 960L968 961L967 960M966 961L967 962L966 961M965 962L966 963L965 962M964 963L965 964L964 963M963 964L964 965L963 964M962 965L963 966L962 965M961 966L962 967L961 966M960 967L961 968L960 967M959 968L960 969L959 968M958 969L959 970L958 969M957 970L958 971L957 970M956 971L957 972L956 971M955 972L956 973L955 972M952 975L955 973L952 975M951 975L952 976L951 975M950 976L951 977L950 976M949 977L950 978L949 977M946 980L949 978L946 980M945 980L946 981L945 980M944 981L945 982L944 981M942.667 982.333L943.333 982.667L942.667 982.333M941 983L942 984L941 983M940 984L941 985L940 984M938.667 985.333L939.333 985.667L938.667 985.333M937 986L938 987L937 986M934 989L937 987L934 989M933 989L934 990L933 989M931 990L932 991L931 990z"/>
<path style="fill:#e36815; stroke:none;" d="M932 990L933 991L932 990z"/>
<path style="fill:#f1a995; stroke:none;" d="M930 991L931 992L930 991M928 992L929 993L928 992z"/>
<path style="fill:#e36815; stroke:none;" d="M929 992L930 993L929 992z"/>
<path style="fill:#f1a995; stroke:none;" d="M926.667 993.333L927.333 993.667L926.667 993.333M98 994L98 995L104 998L104 997L98 994M925 994L926 995L925 994M923.667 995.333L924.333 995.667L923.667 995.333M921.667 996.333L922.333 996.667L921.667 996.333M919.667 997.333L920.333 997.667L919.667 997.333M105 998L106 999L105 998M918 998L919 999L918 998M107 999L107 1000L122 1007L122 1006L107 999M916 999L902 1006L902 1007L917 1000L916 999M123 1007L124 1008L123 1007M897 1008L897 1009L901 1008L897 1008M125 1008L125 1009L132 1011L132 1010L125 1008M894.667 1009.33L895.333 1009.67L894.667 1009.33z"/>
<path style="fill:#e36815; stroke:none;" d="M896 1009L897 1010L896 1009z"/>
<path style="fill:#f1a995; stroke:none;" d="M892.667 1010.33L893.333 1010.67L892.667 1010.33M133 1011L133 1012L141 1014L141 1013L133 1011M889.667 1011.33L890.333 1011.67L889.667 1011.33M883 1013L883 1014L888 1013L883 1013M142 1014L142 1015L147 1016L147 1015L142 1014M873 1016L873 1017L882 1015L873 1016M148 1016L148 1017L151 1017L148 1016M152.667 1017.33L153.333 1017.67L152.667 1017.33M856 1020L856 1021L872 1018L856 1020M155 1018L155 1019L158 1019L155 1018M159 1019L159 1020L162 1020L159 1019M163 1020L163 1021L168 1021L163 1020M169 1021L169 1022L173 1022L169 1021M850 1021L850 1022L855 1022L850 1021M175 1022L175 1023L181 1023L175 1022M842 1022L842 1023L849 1023L842 1022M184 1023L184 1024L194 1024L184 1023M829 1023L829 1024L840 1024L829 1023z"/>
</svg>
